<svg width="218" height="188" viewBox="0 0 218 188" fill="none" xmlns="http://www.w3.org/2000/svg">
<path d="M203.047 54.011C204.585 48.069 205.362 41.502 205.362 34.414C205.362 24.671 202.904 14.925 198.055 5.446C196.345 2.103 192.907 0 189.152 0C179.637 0 170.96 1.783 163.361 5.299C157.275 8.115 150.45 12.385 142.59 18.302C132.691 15.986 122.435 14.813 112.029 14.813L110.886 14.818C99.9509 14.906 88.5119 16.14 76.8219 18.489C68.6139 12.651 61.6369 8.384 55.5829 5.492C47.9539 1.848 39.1449 0 29.3999 0C25.6799 0 22.2679 2.065 20.5419 5.36C15.7009 14.602 13.1339 24.254 12.9109 34.047C12.9099 34.123 12.9089 34.198 12.9089 34.274C12.9089 41.417 13.6819 48.067 15.2099 54.118C5.06888 67.668 0.0258803 83.676 0.20788 101.783C0.21288 121.444 3.07388 136.505 8.94988 147.823C15.2499 159.975 25.1559 169.183 38.3919 175.19C50.4989 180.683 62.7739 184.145 74.8749 185.477C86.2619 186.733 99.0939 187.417 113.017 187.513C113.544 187.516 114.07 187.518 114.595 187.518C128.28 187.518 141.659 186.268 154.275 183.819C181.93 178.715 200.683 166.329 210.011 147.005C210.035 146.952 210.061 146.901 210.084 146.848C215.263 135.63 217.779 120.827 217.779 101.59C217.78 83.644 212.828 67.666 203.047 54.011Z" fill="#D1D1D1"/>
<path d="M181.813 122.052C181.813 113.584 179.038 106.058 173.487 99.472C167.936 92.887 160.457 89.594 151.049 89.594C147.662 89.594 141.405 90.299 132.279 91.71C123.152 93.122 115.391 93.827 108.994 93.827C102.596 93.827 94.9279 93.122 85.9909 91.71C77.0529 90.299 70.8909 89.594 67.5039 89.594C58.2839 89.594 50.8509 92.887 45.2059 99.472C39.5609 106.058 36.7389 113.491 36.7389 121.77C36.7389 136.447 41.3489 147.548 50.5689 155.076C59.9769 162.602 74.9359 166.366 95.4459 166.366H119.154C141.734 166.366 157.822 162.696 167.419 155.358C177.016 148.019 181.813 136.917 181.813 122.052ZM191.975 56.006C202.512 68.801 207.781 83.995 207.781 101.589C207.781 119.182 205.523 132.871 201.007 142.656C193.105 159.026 176.922 169.469 152.461 173.984C139.854 176.431 126.73 177.606 113.087 177.512C99.4449 177.418 87.0739 176.76 75.9719 175.536C64.8699 174.313 53.7209 171.162 42.5259 166.082C31.3299 161.001 23.0979 153.381 17.8289 143.219C12.7489 133.435 10.2089 119.605 10.2089 101.73C10.0209 84.042 15.3829 68.895 26.2969 56.288C24.0389 49.891 22.9099 42.552 22.9099 34.273C23.0969 25.994 25.2609 17.903 29.3999 10C37.6789 10 44.9709 11.505 51.2739 14.516C57.5779 17.526 65.3389 22.418 74.5589 29.193C87.1659 26.37 99.3029 24.912 110.968 24.818C122.634 24.724 133.925 26.182 144.838 29.193C153.682 22.231 161.256 17.292 167.56 14.375C173.863 11.458 181.06 10 189.152 10C193.291 18.091 195.362 26.229 195.362 34.414C195.362 42.599 194.232 49.797 191.975 56.006ZM80.2049 105.399C84.7209 109.915 86.8849 116.125 86.6969 124.028C86.5089 131.929 84.3449 138.328 80.2049 143.219C77.7589 145.854 74.8429 147.171 71.4549 147.171C68.0669 147.171 65.1509 145.854 62.7049 143.219C58.5649 139.079 56.2129 132.777 55.6489 124.31C55.4609 116.595 57.6249 110.385 62.1409 105.681C64.5869 103.047 67.5979 101.73 71.1729 101.73C74.7479 101.73 77.7589 102.953 80.2049 105.399ZM156.129 105.399C160.457 109.915 162.526 116.125 162.339 124.028C162.339 131.929 160.363 138.328 156.412 143.219C153.965 145.854 151.049 147.171 147.662 147.171C144.275 147.171 141.264 145.854 138.631 143.219C134.49 139.079 132.232 132.777 131.856 124.31C131.668 116.595 133.833 110.385 138.348 105.681C140.793 103.047 143.71 101.683 147.097 101.588C150.483 101.495 153.494 102.765 156.129 105.399Z" fill="#464646"/>
<path d="M42.0592 45.4129L43.4837 75.1017C43.8512 77.1136 46.3878 77.8064 47.731 76.2485L50.1783 73.4072C50.9238 72.5355 52.1748 72.3044 53.1875 72.854L56.4839 74.6481C58.282 75.6267 60.4086 74.0817 60.0411 72.0698L52.2344 42.3076C51.9903 40.9906 50.7214 40.1154 49.3977 40.3491L44.0349 42.5798C42.6901 42.8271 41.815 44.0959 42.0592 45.4129V45.4129Z" fill="#FFA1E0"/>
<path d="M57.1666 35.6026L83.7093 48.9795C85.3978 50.1335 84.9989 52.7325 83.0294 53.326L79.4383 54.4061C78.3388 54.7326 77.6188 55.7814 77.709 56.9301L78.0072 60.6713C78.1698 62.7119 75.8934 64.0263 74.205 62.8722L50.1911 43.6351C49.0873 42.8764 48.8039 41.3613 49.5558 40.247L53.7748 36.2551C54.5477 35.1272 56.0628 34.8438 57.1666 35.6026V35.6026Z" fill="#FFA1E0"/>
<path d="M23.0277 41.0786C23.0277 41.0786 23.2123 40.7202 23.6264 40.3022C24.0338 39.8737 24.6843 39.4066 25.5449 39.0564C26.4123 38.7166 27.5176 38.4907 28.8004 38.4923C29.4486 38.5036 30.1209 38.529 30.8037 38.5476C31.4964 38.6045 32.1829 38.6058 32.9134 38.6978C33.6302 38.7689 34.3471 38.8399 35.0534 38.9178C35.753 38.9851 36.4792 39.1395 37.1714 39.2415C37.8636 39.3434 38.5243 39.4658 39.1882 39.6159C39.8416 39.7729 40.4369 39.8633 41.0311 40.0438C42.189 40.3351 43.1804 40.6452 43.8814 40.8756C44.5924 41.1442 45.0032 41.2947 45.0032 41.2947C48.707 42.6603 50.5991 46.7674 49.244 50.4643C49.2225 50.523 49.1936 50.6163 49.1616 50.6818C49.1616 50.6818 49.0042 51.0821 48.7184 51.7894C48.4225 52.4585 47.9778 53.4031 47.4208 54.4504C47.1507 54.9984 46.8256 55.5076 46.4926 56.0965C46.1596 56.6854 45.8093 57.2706 45.4244 57.8484C45.0395 58.4262 44.6677 59.0701 44.2415 59.6301C43.822 60.2006 43.3989 60.7884 42.9689 61.3657C42.5526 61.964 42.0923 62.4715 41.6592 63.0211C41.2162 63.5323 40.7732 64.0436 40.3616 64.5344C39.5008 65.481 38.6086 66.1498 37.7611 66.5661C36.9172 66.965 36.1316 67.1324 35.5421 67.1426C34.9594 67.1633 34.5654 67.0615 34.5654 67.0615C24.8494 64.5626 19.0184 54.7116 21.5032 45.0197C21.8559 43.6579 22.3926 42.281 23.0277 41.0786V41.0786Z" fill="#FF3ED2"/>
<path d="M79.9871 37.5348C79.9871 37.5348 79.9131 37.9257 79.664 38.4601C79.4148 38.9945 78.9424 39.6441 78.2347 40.2527C77.5202 40.8509 76.5359 41.4007 75.321 41.8021C74.6947 41.9852 74.0579 42.1752 73.4107 42.372C72.7325 42.5441 72.0748 42.7477 71.3657 42.8951C70.6635 43.0531 69.9544 43.2006 69.2626 43.3517C68.5776 43.5134 67.8382 43.5911 67.1538 43.7077C66.4693 43.8243 65.7991 43.9168 65.1189 43.971C64.4559 44.0289 63.848 44.1256 63.2375 44.1494C62.0542 44.2322 61.0104 44.2543 60.2788 44.2525C59.5164 44.2259 59.0867 44.2069 59.0867 44.2069C55.1497 44.0659 52.0656 40.7627 52.1999 36.8152C52.2041 36.7529 52.2052 36.6628 52.2131 36.5831C52.2131 36.5831 52.2426 36.1466 52.2864 35.3878C52.3611 34.6537 52.481 33.6219 52.6859 32.4456C52.7694 31.8398 52.9222 31.2488 53.0446 30.5881C53.1669 29.9273 53.3344 29.2671 53.5228 28.5933C53.7112 27.9195 53.8656 27.1932 54.0885 26.5268C54.3047 25.8498 54.5314 25.166 54.7581 24.4823C54.9711 23.7776 55.2386 23.1567 55.4789 22.4939C55.7396 21.8626 55.9966 21.2485 56.2432 20.6413C56.7635 19.4687 57.409 18.5577 58.0826 17.8966C58.7631 17.2461 59.4507 16.8591 60.0011 16.6508C60.5514 16.4425 60.9538 16.4196 60.9538 16.4196C70.9264 15.7561 79.5518 23.3005 80.2153 33.273C80.2985 34.7094 80.201 36.1887 79.9871 37.5348V37.5348Z" fill="#FF3ED2"/>
<path d="M56.6742 51.3926C60.6923 48.7832 61.8343 43.4105 59.2249 39.3924C56.6155 35.3743 51.2428 34.2323 47.2247 36.8417C43.2066 39.4511 42.0646 44.8237 44.674 48.8419C47.2834 52.86 52.656 54.002 56.6742 51.3926Z" fill="#FF5FD2"/>
<path d="M47.354 46.2672C47.1653 46.3897 46.9667 46.474 46.7408 46.5164C45.8095 46.6889 44.9016 46.0712 44.7291 45.14C44.4619 43.7187 44.6663 42.2892 45.3025 40.9967C45.7289 40.1385 46.7593 39.7973 47.607 40.2305C48.4584 40.6464 48.8064 41.6873 48.3732 42.535C48.0606 43.1553 47.9692 43.8407 48.0962 44.5183C48.2369 45.2169 47.9201 45.8996 47.354 46.2672V46.2672Z" fill="#FFA1E0"/>
</svg>
