<svg width="218" height="204" viewBox="0 0 218 204" fill="none" xmlns="http://www.w3.org/2000/svg">
<path d="M203.047 70.011C204.585 64.069 205.362 57.502 205.362 50.414C205.362 40.671 202.904 30.925 198.055 21.446C196.345 18.103 192.907 16 189.152 16C179.637 16 170.96 17.783 163.361 21.299C157.275 24.115 150.45 28.385 142.59 34.302C132.691 31.986 122.435 30.813 112.029 30.813L110.886 30.818C99.9509 30.906 88.5119 32.14 76.8219 34.489C68.6139 28.651 61.6369 24.384 55.5829 21.492C47.9539 17.848 39.1449 16 29.3999 16C25.6799 16 22.2679 18.065 20.5419 21.36C15.7009 30.602 13.1339 40.254 12.9109 50.047C12.9099 50.123 12.9089 50.198 12.9089 50.274C12.9089 57.417 13.6819 64.067 15.2099 70.118C5.06888 83.668 0.0258803 99.676 0.20788 117.783C0.21288 137.444 3.07388 152.505 8.94988 163.823C15.2499 175.975 25.1559 185.183 38.3919 191.19C50.4989 196.683 62.7739 200.145 74.8749 201.477C86.2619 202.733 99.0939 203.417 113.017 203.513C113.544 203.516 114.07 203.518 114.595 203.518C128.28 203.518 141.659 202.268 154.275 199.819C181.93 194.715 200.683 182.329 210.011 163.005C210.035 162.952 210.061 162.901 210.084 162.848C215.263 151.63 217.779 136.827 217.779 117.59C217.78 99.644 212.828 83.666 203.047 70.011Z" fill="#D1D1D1"/>
<path d="M181.813 138.052C181.813 129.584 179.038 122.058 173.487 115.472C167.936 108.887 160.457 105.594 151.049 105.594C147.662 105.594 141.405 106.299 132.279 107.71C123.152 109.122 115.391 109.827 108.994 109.827C102.596 109.827 94.9279 109.122 85.9909 107.71C77.0529 106.299 70.8909 105.594 67.5039 105.594C58.2839 105.594 50.8509 108.887 45.2059 115.472C39.5609 122.058 36.7389 129.491 36.7389 137.77C36.7389 152.447 41.3489 163.548 50.5689 171.076C59.9769 178.602 74.9359 182.366 95.4459 182.366H119.154C141.734 182.366 157.822 178.696 167.419 171.358C177.016 164.019 181.813 152.917 181.813 138.052ZM191.975 72.006C202.512 84.801 207.781 99.995 207.781 117.589C207.781 135.182 205.523 148.871 201.007 158.656C193.105 175.026 176.922 185.469 152.461 189.984C139.854 192.431 126.73 193.606 113.087 193.512C99.4449 193.418 87.0739 192.76 75.9719 191.536C64.8699 190.313 53.7209 187.162 42.5259 182.082C31.3299 177.001 23.0979 169.381 17.8289 159.219C12.7489 149.435 10.2089 135.605 10.2089 117.73C10.0209 100.042 15.3829 84.895 26.2969 72.288C24.0389 65.891 22.9099 58.552 22.9099 50.273C23.0969 41.994 25.2609 33.903 29.3999 26C37.6789 26 44.9709 27.505 51.2739 30.516C57.5779 33.526 65.3389 38.418 74.5589 45.193C87.1659 42.37 99.3029 40.912 110.968 40.818C122.634 40.724 133.925 42.182 144.838 45.193C153.682 38.231 161.256 33.292 167.56 30.375C173.863 27.458 181.06 26 189.152 26C193.291 34.091 195.362 42.229 195.362 50.414C195.362 58.599 194.232 65.797 191.975 72.006ZM80.2049 121.399C84.7209 125.915 86.8849 132.125 86.6969 140.028C86.5089 147.929 84.3449 154.328 80.2049 159.219C77.7589 161.854 74.8429 163.171 71.4549 163.171C68.0669 163.171 65.1509 161.854 62.7049 159.219C58.5649 155.079 56.2129 148.777 55.6489 140.31C55.4609 132.595 57.6249 126.385 62.1409 121.681C64.5869 119.047 67.5979 117.73 71.1729 117.73C74.7479 117.73 77.7589 118.953 80.2049 121.399ZM156.129 121.399C160.457 125.915 162.526 132.125 162.339 140.028C162.339 147.929 160.363 154.328 156.412 159.219C153.965 161.854 151.049 163.171 147.662 163.171C144.275 163.171 141.264 161.854 138.631 159.219C134.49 155.079 132.232 148.777 131.856 140.31C131.668 132.595 133.833 126.385 138.348 121.681C140.793 119.047 143.71 117.683 147.097 117.588C150.483 117.495 153.494 118.765 156.129 121.399Z" fill="#464646"/>
<g clip-path="url(#clip0_37_62)">
<path d="M110.131 0.00627661C108.995 -0.0230081 107.858 0.293276 106.865 0.932964C105.054 2.09868 104.099 4.16453 104.251 6.2809C100.89 6.72493 97.5579 7.54289 94.476 8.99212C88.4587 11.8223 83.1474 16.3091 79.0157 21.4667C76.0887 25.1205 73.8491 29.4986 72.7698 34.1129C71.3171 40.3231 72.1603 46.6909 72.7464 52.6619C73.0249 55.501 73.6183 59.054 74.2964 62.6827L77.6139 61.9903L78.5691 66.5489L75.2116 67.2524C75.4953 68.6334 75.7623 69.8352 76.0466 71.1418L79.5357 70.4097L80.4909 74.9682L77.019 75.6947C77.0761 75.9434 77.1468 76.3067 77.202 76.5469C77.7012 78.7158 79.0585 80.4245 80.8341 81.3056C82.6095 82.1871 84.7791 82.2369 86.8226 81.414C93.3625 78.7661 103.886 75.0819 110.039 75.0819C116.141 75.0819 126.535 78.7079 133.083 81.351C135.172 82.1942 137.392 82.1192 139.203 81.219C141.015 80.3193 142.389 78.597 142.898 76.3801C144.45 69.6234 146.681 59.2844 147.331 52.6606C147.538 50.5493 147.748 48.3823 147.903 46.1972L143.121 47.1983L142.166 42.6397L148.034 41.4099C148.02 40.0702 147.986 38.7289 147.829 37.389L141.199 38.7789L140.244 34.2204L146.896 32.8251C145.724 28.693 143.689 24.779 141.039 21.4716C136.908 16.3135 131.596 11.8269 125.579 8.99705C122.49 7.54417 119.161 6.71741 115.798 6.27485C115.947 4.23279 115.082 2.22331 113.367 1.03545C112.394 0.363731 111.265 0.0189132 110.13 0.000244141L110.131 0.00627661Z" fill="#FFB800"/>
<path d="M110.078 2.92749C110.647 2.92749 111.214 3.1032 111.703 3.44235C112.545 4.02658 112.976 4.98914 112.927 5.98756C111.962 5.93174 110.994 5.86749 110.038 5.86749C109.077 5.86749 108.104 5.93466 107.133 5.99342C107.088 4.96168 107.551 3.97241 108.437 3.40227C108.936 3.08014 109.509 2.92603 110.078 2.93299V2.92749H110.078Z" fill="#29A3EC"/>
<path d="M110.039 8.77881C111.339 8.77881 112.652 8.84598 113.956 8.97227C115.026 9.95386 116.805 11.6134 117.628 12.713C121.61 18.028 125.334 23.6573 126.877 29.6433C127.636 32.5889 127.693 37.6312 127.484 41.8319C127.338 44.7657 127.139 46.8202 127.003 48.0835C121.058 46.5356 114.863 45.2919 110.039 45.2919C105.221 45.2919 99.0245 46.5323 93.0799 48.0775C92.9437 46.8116 92.74 44.7601 92.594 41.8316C92.3848 37.6309 92.4179 32.5886 93.1773 29.6429C94.72 23.6569 98.4734 18.0277 102.455 12.7127C103.277 11.6145 105.039 9.96081 106.104 8.97813C107.416 8.8522 108.73 8.77881 110.039 8.77881Z" fill="#1E6087"/>
<path d="M119.007 9.8543C120.855 10.3047 122.664 10.8639 124.349 11.656C129.887 14.26 134.863 18.4596 138.745 23.3066C141.416 26.6409 143.465 30.6549 144.431 34.7864C145.723 40.3088 145 46.3592 144.409 52.3854C144.375 52.6885 144.309 53.0989 144.271 53.4203C142.035 52.6199 138.392 51.3497 133.129 49.7879C132.078 49.4762 130.951 49.1795 129.852 48.8727C129.969 47.8399 130.234 45.4373 130.407 41.9862C130.622 37.67 130.656 32.5553 129.715 28.9053C127.999 22.2491 124.005 16.3592 119.963 10.9627C119.701 10.6128 119.345 10.2288 119.008 9.85303L119.007 9.8543Z" fill="#FAEADF"/>
<path d="M101.047 9.85986C100.712 10.2338 100.358 10.6156 100.098 10.9645C96.0555 16.3605 92.0612 22.2504 90.3457 28.9066C89.4049 32.5568 89.438 37.6714 89.6538 41.9876C89.8264 45.4384 90.0854 47.842 90.2027 48.8745C89.1047 49.1808 87.9809 49.4775 86.9311 49.7896C81.6686 51.351 78.026 52.6209 75.7891 53.4216C75.756 53.1006 75.6762 52.6902 75.6464 52.3868C75.0554 46.3604 74.3322 40.3101 75.6242 34.7878C76.5905 30.6568 78.6393 26.6422 81.3097 23.308C85.1927 18.461 90.1912 14.2612 95.7289 11.657C97.4066 10.868 99.2085 10.3105 101.048 9.86096L101.047 9.85986Z" fill="white"/>
<path d="M110.039 48.2332C115.861 48.2332 124.855 50.3988 132.282 52.603C138.035 54.3103 141.979 55.7059 143.871 56.3895C142.95 62.5031 141.298 70.2536 140.044 75.7107C139.711 77.1591 138.927 78.0972 137.905 78.6045C136.883 79.1115 135.584 79.1912 134.187 78.6338C127.525 75.9449 117.227 72.1703 110.038 72.1703C102.791 72.1703 92.3716 76.0086 85.7183 78.7023C84.3676 79.2488 83.1171 79.1681 82.1321 78.673C81.147 78.1836 80.3781 77.2816 80.056 75.8814C78.7989 70.4187 77.1207 62.5721 76.1895 56.3944C78.0664 55.7138 82.0069 54.3132 87.7717 52.6019C95.1991 50.398 104.215 48.2332 110.039 48.2332Z" fill="#1E6087"/>
<path d="M110.039 49.5144C104.7 49.5144 96.43 51.4974 89.6196 53.5178C84.3335 55.0864 80.7249 56.3713 79.0039 56.9954C79.8583 62.66 81.3917 69.855 82.5442 74.8636C82.8398 76.1474 83.546 76.9778 84.449 77.4261C85.3523 77.8754 86.4993 77.9508 87.7379 77.4583C93.8385 74.9888 103.393 71.4697 110.039 71.4697C116.63 71.4697 126.071 74.9297 132.18 77.3953C133.46 77.9111 134.652 77.8379 135.589 77.3631C136.525 76.8984 137.245 76.0372 137.551 74.7092C138.7 69.7055 140.212 62.6006 141.057 56.995C139.323 56.3687 135.71 55.0829 130.435 53.5174C123.625 51.497 115.378 49.5144 110.039 49.5144Z" fill="#29A3EC"/>
<path d="M136.795 59.7642C137.604 59.7874 138.24 60.4617 138.217 61.27C138.214 61.3836 138.197 61.4962 138.168 61.606L136.721 67.4228C136.526 68.2115 135.728 68.6929 134.939 68.4978C134.151 68.3027 133.67 67.505 133.865 66.7162C133.865 66.7136 133.866 66.7109 133.867 66.7079L135.337 60.8907C135.484 60.2704 136.016 59.8172 136.652 59.7697C136.7 59.7675 136.747 59.7675 136.795 59.7697L136.795 59.7642Z" fill="white"/>
<path d="M134.279 70.2021C135.087 70.2021 135.743 70.8578 135.743 71.6664C135.743 72.475 135.087 73.1306 134.279 73.1306C133.47 73.1306 132.814 72.475 132.814 71.6664C132.814 70.8578 133.47 70.2021 134.279 70.2021Z" fill="white"/>
<path d="M119.007 9.8543C120.855 10.3047 122.664 10.8639 124.349 11.656C129.887 14.26 134.863 18.4596 138.745 23.3066C141.416 26.6409 143.465 30.6549 144.431 34.7864C145.723 40.3088 145 46.3592 144.409 52.3854C144.375 52.6885 144.309 53.0989 144.271 53.4203C142.035 52.6199 138.392 51.3497 133.129 49.7879C132.078 49.4762 130.951 49.1795 129.852 48.8727C129.969 47.8399 130.234 45.4373 130.407 41.9862C130.622 37.67 130.656 32.5553 129.715 28.9053C127.999 22.2491 124.005 16.3592 119.963 10.9627C119.701 10.6128 119.345 10.2288 119.008 9.85303L119.007 9.8543Z" fill="white"/>
<path d="M100.065 11.4966C99.7552 11.8431 99.4276 12.1947 99.1863 12.5179C95.448 17.5088 91.7539 22.9555 90.1672 29.1117C89.2972 32.4873 89.3282 37.2175 89.5275 41.2096C89.688 44.4013 89.927 46.6236 90.0356 47.5789C89.0207 47.8631 87.9807 48.1369 87.0099 48.4254C82.1428 49.8697 78.774 51.0436 76.7052 51.7843C76.672 51.4876 76.5944 51.1069 76.5734 50.8276C76.0267 45.2542 75.3579 39.6586 76.5512 34.5512C77.4444 30.7301 79.3397 27.0173 81.8095 23.9344C85.4005 19.4516 90.0235 15.5675 95.145 13.1592C96.6966 12.4286 98.3631 11.9141 100.065 11.4981L100.065 11.4966Z" fill="#EBFEFF"/>
<path d="M119.63 11.4966C119.94 11.8431 120.267 12.1947 120.509 12.5179C124.247 17.5088 127.941 22.9555 129.528 29.1117C130.398 32.4873 130.367 37.2175 130.168 41.2096C130.007 44.4013 129.768 46.6236 129.66 47.5789C130.674 47.8631 131.714 48.1369 132.685 48.4254C137.552 49.8697 140.921 51.0436 142.99 51.7843C143.023 51.4876 143.101 51.1069 143.122 50.8276C143.668 45.2542 144.337 39.6586 143.144 34.5512C142.251 30.7301 140.356 27.0173 137.886 23.9344C134.295 19.4516 129.672 15.5675 124.55 13.1592C122.999 12.4286 121.332 11.9141 119.631 11.4981L119.63 11.4966Z" fill="#EBFEFF"/>
<path d="M110.038 11.2378C111.177 11.2378 112.325 11.2936 113.466 11.4076C114.402 12.2666 115.958 13.718 116.679 14.68C120.162 19.3301 123.421 24.255 124.77 29.4922C125.434 32.0693 125.484 36.4807 125.3 40.1556C125.173 42.7222 124.999 44.5201 124.88 45.625C119.678 44.271 114.258 43.183 110.038 43.183C105.823 43.183 100.402 44.2688 95.2012 45.6199C95.0817 44.5128 94.9045 42.718 94.7762 40.1557C94.5935 36.4809 94.6225 32.0695 95.2865 29.4924C96.6363 24.255 99.9201 19.3304 103.403 14.6802C104.122 13.7197 105.664 12.2726 106.596 11.4128C107.744 11.3017 108.894 11.2378 110.038 11.2378Z" fill="#29A3EC"/>
<path d="M110.07 3.19861C110.539 3.19861 111.005 3.34211 111.407 3.62233C112.1 4.10388 112.456 4.89531 112.416 5.71747C111.621 5.67355 110.825 5.61771 110.038 5.61771C109.247 5.61771 108.447 5.67355 107.647 5.71747C107.603 4.8684 107.991 4.05408 108.721 3.5848C109.131 3.32123 109.603 3.19403 110.072 3.19861H110.07Z" fill="#3CDEF6"/>
<path d="M114.896 5.86572L112.972 8.07106C112.972 8.07106 116.506 11.232 117.62 12.7191C121.601 18.0341 125.351 23.6593 126.893 29.6457C127.653 32.5914 127.687 37.6375 127.477 41.8382C127.268 46.0389 126.85 49.4257 126.85 49.4257L129.747 49.7932C129.747 49.7932 130.18 46.3056 130.396 41.9894C130.611 37.6728 130.666 32.5604 129.725 28.9106C128.01 22.2544 123.996 16.3645 119.954 10.9681C118.345 8.81965 114.896 5.8661 114.896 5.8661V5.86572Z" fill="#FFB800"/>
<path d="M105.167 5.86584C105.167 5.86584 101.719 8.81938 100.109 10.9678C96.0667 16.3639 92.0532 22.2538 90.3377 28.9104C89.3969 32.5605 89.4522 37.6725 89.6676 41.9891C89.8831 46.3053 90.3161 49.7929 90.3161 49.7929L93.2129 49.4254C93.2129 49.4254 92.7956 46.0383 92.586 41.8379C92.3765 37.6372 92.4105 32.5913 93.1697 29.6454C94.7125 23.6594 98.4624 18.0338 102.444 12.7188C103.558 11.2321 107.113 8.07079 107.113 8.07079L105.167 5.86548V5.86584Z" fill="#FFB800"/>
<path d="M111.429 22.2727H113.455V34.2301C113.455 35.2973 113.259 36.204 112.866 36.9499C112.474 37.6959 111.922 38.2622 111.208 38.6488C110.495 39.0354 109.654 39.2287 108.685 39.2287C107.77 39.2287 106.956 39.0626 106.243 38.7305C105.529 38.3929 104.968 37.9137 104.56 37.293C104.152 36.6722 103.947 35.9344 103.947 35.0795H105.94C105.94 35.5533 106.057 35.9671 106.292 36.321C106.531 36.6695 106.858 36.9418 107.272 37.1378C107.685 37.3338 108.156 37.4318 108.685 37.4318C109.267 37.4318 109.763 37.3093 110.171 37.0643C110.58 36.8192 110.89 36.4599 111.102 35.9862C111.32 35.507 111.429 34.9216 111.429 34.2301V22.2727Z" fill="white"/>
</g>
<defs>
<clipPath id="clip0_37_62">
<rect width="82" height="82" fill="white" transform="translate(69)"/>
</clipPath>
</defs>
</svg>
