<svg width="30" height="26" viewBox="0 0 30 26" fill="none" xmlns="http://www.w3.org/2000/svg">
<path d="M29.664 10.2908L25.5176 8.06802L28.8293 5.83594C29.0171 5.70943 29.1235 5.49268 29.1088 5.26675C29.0942 5.04083 28.9608 4.83961 28.7582 4.73832L19.4185 0.0672377C19.2211 -0.0315039 18.9864 -0.0209761 18.7984 0.0954252L15 2.44824L11.2017 0.0954252C11.0138 -0.0209761 10.779 -0.0315039 10.5815 0.0672377L1.24176 4.7384C1.03919 4.83969 0.90572 5.04091 0.891117 5.26684C0.876514 5.49276 0.982897 5.70943 1.1707 5.83602L4.48232 8.06811L0.335941 10.2909C0.133364 10.3994 0.00507602 10.6087 0.000151682 10.8385C-0.00485756 11.0682 0.114515 11.2828 0.312168 11.3999L9.56271 16.8815C9.66264 16.9408 9.77488 16.9705 9.88729 16.9705C9.99061 16.9705 10.0941 16.9453 10.1882 16.8949L14.3633 14.6568V24.1565L6.31961 20.1254V16.4518C6.31961 16.1001 6.03459 15.815 5.68284 15.815C5.33109 15.815 5.04607 16.1001 5.04607 16.4518V20.5185C5.04607 20.7594 5.18217 20.9798 5.39757 21.0877L14.7147 25.757C14.7207 25.76 14.727 25.7621 14.733 25.7649C14.7429 25.7695 14.7529 25.7738 14.763 25.7778C14.7788 25.7842 14.7946 25.7897 14.8107 25.7947C14.8205 25.7978 14.8301 25.8009 14.8401 25.8035C14.8576 25.8081 14.8752 25.8115 14.893 25.8144C14.902 25.816 14.9108 25.818 14.9199 25.8191C14.9437 25.8222 14.9678 25.8238 14.9918 25.824C14.9947 25.824 14.9975 25.8246 15.0004 25.8246C15.0274 25.8246 15.0546 25.8224 15.0818 25.8188C15.0885 25.818 15.0951 25.8165 15.1019 25.8154C15.1218 25.8121 15.1416 25.8081 15.1613 25.803C15.1704 25.8006 15.1793 25.7977 15.1884 25.7949C15.2053 25.7896 15.222 25.7837 15.2387 25.7769C15.2486 25.7729 15.2584 25.7688 15.2681 25.7643C15.2738 25.7616 15.2796 25.7598 15.2852 25.757L24.6023 21.0877C24.8177 20.9797 24.9538 20.7593 24.9538 20.5184V16.4517C24.9538 16.1001 24.6688 15.815 24.317 15.815C23.9653 15.815 23.6803 16.1001 23.6803 16.4517V20.1253L15.6367 24.1563V14.6566L19.8118 16.8947C19.9059 16.9452 20.0093 16.9703 20.1127 16.9703C20.2251 16.9703 20.3373 16.9406 20.4373 16.8813L29.6878 11.3998C29.8855 11.2827 30.0047 11.0681 29.9998 10.8383C29.995 10.6086 29.8666 10.3994 29.664 10.2908ZM15 12.8526L7.02022 8.12415L15 3.91714L22.9798 8.12415L15 12.8526ZM19.1668 1.36531L27.2131 5.38952L24.2771 7.36834L16.2809 3.15276L19.1668 1.36531ZM10.8332 1.36531L13.7189 3.15285L5.72283 7.36843L2.7869 5.38952L10.8332 1.36531ZM9.90291 15.6026L1.9327 10.8797L5.73378 8.84208L13.704 13.5649L9.90291 15.6026ZM20.0971 15.6026L16.296 13.565L24.2662 8.84216L28.0673 10.8798L20.0971 15.6026Z" fill="black"/>
</svg>
