<svg width="34" height="35" viewBox="0 0 34 35" fill="none" xmlns="http://www.w3.org/2000/svg">
<path d="M0 17.0007C0 19.2694 1.84515 21.1148 4.11428 21.1148H12.8872V29.8871C12.8872 32.1559 14.7323 34.0013 17.0013 34.0013C19.2708 34.0013 21.1156 32.1559 21.1156 29.8871V21.1148H29.8857C32.1545 21.1148 34 19.2694 34 17.0007C34 14.7315 32.1545 12.8864 29.8857 12.8864H21.1155V4.11428C21.1155 1.84515 19.2707 0 17.0013 0C14.7323 0 12.8872 1.84515 12.8872 4.11428V12.8865H4.11428C1.84526 12.8865 0 14.7316 0 17.0007ZM13.5729 14.2578C13.9521 14.2578 14.2586 13.9505 14.2586 13.5721V4.11428C14.2586 2.60168 15.4887 1.37143 17.0013 1.37143C18.5141 1.37143 19.7442 2.60157 19.7442 4.11428V13.5722C19.7442 13.9506 20.0509 14.2579 20.4299 14.2579H29.8857C31.3984 14.2579 32.6286 15.488 32.6286 17.0008C32.6286 18.5134 31.3985 19.7436 29.8857 19.7436H20.4299C20.0509 19.7436 19.7442 20.051 19.7442 20.4292V29.8872C19.7442 31.3999 18.5142 32.63 17.0013 32.63C15.4887 32.63 14.2586 31.4 14.2586 29.8872V20.4292C14.2586 20.0509 13.9521 19.7436 13.5729 19.7436H4.11428C2.60157 19.7436 1.37143 18.5135 1.37143 17.0008C1.37143 15.4881 2.60157 14.2579 4.11428 14.2579H13.5729V14.2578Z" fill="#ABABAB"/>
</svg>
