<svg width="30" height="30" viewBox="0 0 30 30" fill="none" xmlns="http://www.w3.org/2000/svg">
<path d="M19.6653 0C13.9667 0 9.33052 4.63613 9.33052 10.3348C9.33052 12.6796 10.116 14.844 11.4368 16.5801L9.34322 18.6737C9.32994 18.687 9.31782 18.701 9.30635 18.7153C9.13497 18.6796 8.95886 18.6609 8.77976 18.6609C8.09618 18.6609 7.45341 18.9271 6.96985 19.4107L0.749611 25.631C0.266177 26.1143 0 26.757 0 27.4406C0 28.1243 0.266177 28.767 0.749546 29.2502C1.23311 29.7338 1.87587 30 2.55946 30C3.24305 30 3.88581 29.7338 4.36937 29.2502L10.5896 23.03C11.073 22.5467 11.3392 21.904 11.3392 21.2203C11.3392 21.0411 11.3205 20.865 11.2848 20.6936C11.2992 20.6822 11.3131 20.6701 11.3264 20.6568L13.4199 18.5633C15.156 19.8842 17.3205 20.6695 19.6653 20.6695C25.3639 20.6695 30.0001 16.0334 30.0001 10.3348C30.0001 4.63613 25.3639 0 19.6653 0ZM3.68203 28.563C3.3821 28.8629 2.98348 29.0281 2.55946 29.0281C2.13544 29.0281 1.73682 28.8629 1.43683 28.5629C1.13702 28.2632 0.971922 27.8647 0.971922 27.4406C0.971922 27.0165 1.13702 26.618 1.43689 26.3182L7.05447 20.7006L9.29942 22.9456L3.68203 28.563ZM9.98326 22.2549L7.74603 20.0177C8.04246 19.7627 8.41069 19.6337 8.77976 19.6337C9.18629 19.6337 9.59294 19.7885 9.9024 20.0981C10.2022 20.3977 10.3673 20.7963 10.3673 21.2204C10.3673 21.6043 10.2315 21.9672 9.98326 22.2549ZM10.868 19.7407C10.7852 19.6243 10.6927 19.5137 10.5897 19.4108C10.4865 19.3077 10.3758 19.2151 10.2594 19.1322L12.0633 17.3283C12.2577 17.5394 12.4608 17.7425 12.6719 17.9369L10.868 19.7407ZM19.6653 19.6976C14.5026 19.6976 10.3024 15.4975 10.3024 10.3348C10.3024 5.17205 14.5026 0.971922 19.6653 0.971922C24.828 0.971922 29.0281 5.17205 29.0281 10.3348C29.0281 15.4975 24.828 19.6976 19.6653 19.6976Z" fill="black"/>
</svg>
